PathFileType	4	(X/Y/Z)	 New Session 101.trc
DataRate	CameraRate	NumFrames	NumMarkers	Units	OrigDataRate	OrigDataStartFrame	OrigNumFrames
100	100	17	14	m	100	211	337
Frame#	Time	C7			T8			IJ			PX			AA			AC			AI			TS			SC			GH			LE			ME			US			RS			
		X1	Y1	Z1	X2	Y2	Z2	X3	Y3	Z3	X4	Y4	Z4	X5	Y5	Z5	X6	Y6	Z6	X7	Y7	Z7	X8	Y8	Z8	X9	Y9	Z9	X10	Y10	Z10	X11	Y11	Z11	X12	Y12	Z12	X13	Y13	Z13	X14	Y14	Z14	
211	2.1100	0.022054	0.106947	0.157217	0.029901	-0.107726	0.231884	0.000063	0.001462	-0.003292	0.001648	-0.141483	-0.068884	0.220519	0.011062	0.137956	0.168966	0.053813	0.068434	0.107455	0.030630	0.197458	0.112218	-0.087649	0.228896	0.024906	0.009952	0.000396	0.231646	0.025626	0.098565	0.320376	-0.247638	0.026685	0.238140	-0.284372	-0.007793	0.408245	-0.496356	-0.064462	0.444129	-0.449336	-0.118753	
212	2.1200	0.022110	0.106894	0.157422	0.029921	-0.107776	0.232025	0.000096	0.001492	-0.003136	0.001676	-0.141463	-0.068731	0.220554	0.011021	0.138162	0.169012	0.053792	0.068654	0.107469	0.030575	0.197636	0.112238	-0.087699	0.229056	0.024959	0.009979	0.000584	0.231716	0.025621	0.098799	0.320405	-0.247640	0.026837	0.238225	-0.284346	-0.007661	0.408337	-0.496315	-0.064401	0.444033	-0.449333	-0.118711	
213	2.1300	0.022160	0.106848	0.157628	0.029942	-0.107826	0.232177	0.000120	0.001523	-0.002987	0.001705	-0.141446	-0.068576	0.220596	0.010977	0.138355	0.169053	0.053774	0.068863	0.107485	0.030513	0.197824	0.112256	-0.087741	0.229212	0.025013	0.010013	0.000774	0.231773	0.025619	0.099022	0.320462	-0.247648	0.026985	0.238308	-0.284320	-0.007528	0.408444	-0.496271	-0.064320	0.443919	-0.449341	-0.118663	
214	2.1400	0.022201	0.106814	0.157837	0.029954	-0.107879	0.232331	0.000133	0.001555	-0.002844	0.001736	-0.141430	-0.068419	0.220646	0.010941	0.138537	0.169090	0.053761	0.069063	0.107507	0.030452	0.198023	0.112271	-0.087776	0.229362	0.025064	0.010052	0.000966	0.231817	0.025619	0.099234	0.320545	-0.247651	0.027135	0.238388	-0.284294	-0.007394	0.408565	-0.496221	-0.064220	0.443881	-0.449327	-0.118581	
215	2.1500	0.022229	0.106792	0.158053	0.029953	-0.107935	0.232482	0.000136	0.001589	-0.002703	0.001767	-0.141416	-0.068260	0.220695	0.010922	0.138712	0.169123	0.053754	0.069256	0.107529	0.030405	0.198224	0.112286	-0.087807	0.229506	0.025112	0.010095	0.001159	0.231846	0.025621	0.099434	0.320641	-0.247639	0.027290	0.238464	-0.284267	-0.007262	0.408693	-0.496166	-0.064106	0.443928	-0.449281	-0.118462	
216	2.1600	0.022244	0.106782	0.158278	0.029940	-0.107989	0.232633	0.000131	0.001623	-0.002563	0.001800	-0.141407	-0.068100	0.220738	0.010923	0.138884	0.169153	0.053757	0.069443	0.107546	0.030377	0.198419	0.112301	-0.087836	0.229646	0.025154	0.010139	0.001351	0.231861	0.025623	0.099622	0.320739	-0.247605	0.027454	0.238535	-0.284239	-0.007133	0.408819	-0.496104	-0.063987	0.444032	-0.449209	-0.118328	
217	2.1700	0.022250	0.106781	0.158509	0.029924	-0.108037	0.232785	0.000119	0.001656	-0.002421	0.001834	-0.141406	-0.067940	0.220772	0.010938	0.139057	0.169182	0.053770	0.069625	0.107564	0.030359	0.198606	0.112317	-0.087864	0.229785	0.025191	0.010180	0.001541	0.231860	0.025622	0.099800	0.320829	-0.247554	0.027622	0.238600	-0.284210	-0.007007	0.408930	-0.496038	-0.063878	0.444174	-0.449119	-0.118190	
218	2.1800	0.022249	0.106781	0.158741	0.029916	-0.108075	0.232943	0.000105	0.001687	-0.002274	0.001868	-0.141411	-0.067779	0.220803	0.010960	0.139233	0.169210	0.053794	0.069805	0.107583	0.030344	0.198789	0.112333	-0.087892	0.229924	0.025223	0.010219	0.001726	0.231844	0.025615	0.099966	0.320907	-0.247495	0.027790	0.238660	-0.284181	-0.006883	0.409009	-0.495971	-0.063794	0.444360	-0.449017	-0.118040	
219	2.1900	0.022248	0.106774	0.158967	0.029913	-0.108100	0.233109	0.000092	0.001713	-0.002120	0.001902	-0.141422	-0.067618	0.220832	0.010980	0.139415	0.169240	0.053829	0.069986	0.107599	0.030325	0.198975	0.112350	-0.087920	0.230066	0.025253	0.010252	0.001906	0.231814	0.025603	0.100126	0.320973	-0.247440	0.027954	0.238713	-0.284151	-0.006759	0.409044	-0.495907	-0.063752	0.444591	-0.448915	-0.117862	
220	2.2000	0.022249	0.106756	0.159181	0.029912	-0.108115	0.233276	0.000085	0.001734	-0.001957	0.001938	-0.141435	-0.067459	0.220861	0.010995	0.139601	0.169272	0.053872	0.070170	0.107607	0.030300	0.199164	0.112366	-0.087948	0.230215	0.025282	0.010281	0.002079	0.231778	0.025589	0.100284	0.321030	-0.247397	0.028116	0.238760	-0.284122	-0.006634	0.409026	-0.495850	-0.063758	0.444836	-0.448825	-0.117659	
221	2.2100	0.022255	0.106725	0.159379	0.029915	-0.108133	0.233441	0.000089	0.001750	-0.001784	0.001976	-0.141443	-0.067302	0.220885	0.011004	0.139791	0.169305	0.053922	0.070359	0.107609	0.030276	0.199356	0.112379	-0.087976	0.230372	0.025312	0.010306	0.002248	0.231743	0.025578	0.100448	0.321079	-0.247369	0.028278	0.238801	-0.284094	-0.006505	0.408958	-0.495804	-0.063809	0.445041	-0.448752	-0.117448	
222	2.2200	0.022265	0.106683	0.159562	0.029925	-0.108161	0.233602	0.000106	0.001762	-0.001599	0.002015	-0.141444	-0.067148	0.220899	0.011007	0.139985	0.169339	0.053975	0.070554	0.107609	0.030264	0.199557	0.112388	-0.088003	0.230540	0.025342	0.010327	0.002413	0.231717	0.025575	0.100625	0.321121	-0.247354	0.028443	0.238835	-0.284068	-0.006373	0.408859	-0.495767	-0.063887	0.445185	-0.448695	-0.117240	
223	2.2300	0.022274	0.106638	0.159736	0.029938	-0.108200	0.233759	0.000138	0.001770	-0.001403	0.002055	-0.141436	-0.066994	0.220897	0.011005	0.140184	0.169371	0.054027	0.070756	0.107607	0.030264	0.199772	0.112393	-0.088029	0.230718	0.025373	0.010344	0.002578	0.231704	0.025584	0.100820	0.321155	-0.247346	0.028611	0.238865	-0.284043	-0.006235	0.408756	-0.495737	-0.063960	0.445291	-0.448640	-0.117032	
224	2.2400	0.022280	0.106597	0.159914	0.029955	-0.108239	0.233913	0.000184	0.001777	-0.001198	0.002095	-0.141421	-0.066838	0.220882	0.011003	0.140390	0.169400	0.054075	0.070964	0.107603	0.030266	0.199995	0.112394	-0.088054	0.230905	0.025403	0.010358	0.002745	0.231707	0.025604	0.101035	0.321186	-0.247339	0.028781	0.238891	-0.284019	-0.006091	0.408672	-0.495711	-0.063999	0.445388	-0.448577	-0.116824	
225	2.2500	0.022278	0.106568	0.160105	0.029982	-0.108270	0.234073	0.000242	0.001783	-0.000989	0.002137	-0.141401	-0.066676	0.220859	0.011002	0.140605	0.169425	0.054119	0.071179	0.107598	0.030262	0.200216	0.112392	-0.088078	0.231100	0.025434	0.010370	0.002916	0.231728	0.025634	0.101267	0.321223	-0.247327	0.028954	0.238915	-0.283998	-0.005943	0.408625	-0.495685	-0.063988	0.445486	-0.448508	-0.116618	
226	2.2600	0.022272	0.106554	0.160315	0.030020	-0.108293	0.234243	0.000308	0.001791	-0.000777	0.002180	-0.141379	-0.066508	0.220839	0.011001	0.140828	0.169448	0.054157	0.071399	0.107595	0.030247	0.200428	0.112389	-0.088102	0.231301	0.025465	0.010379	0.003095	0.231766	0.025671	0.101513	0.321276	-0.247306	0.029132	0.238937	-0.283978	-0.005791	0.408620	-0.495656	-0.063921	0.445583	-0.448439	-0.116414	
227	2.2700	0.022264	0.106553	0.160543	0.030059	-0.108313	0.234414	0.000378	0.001801	-0.000568	0.002224	-0.141354	-0.066333	0.220826	0.011002	0.141056	0.169469	0.054193	0.071625	0.107596	0.030223	0.200627	0.112387	-0.088125	0.231506	0.025499	0.010386	0.003283	0.231816	0.025711	0.101767	0.321347	-0.247278	0.029315	0.238959	-0.283960	-0.005637	0.408652	-0.495624	-0.063804	0.445676	-0.448375	-0.116211	
